<?xml version="1.0" encoding="utf-8"?>
<svg id="a" viewBox="0 0 6000 99.22" xmlns="http://www.w3.org/2000/svg"><path d="M0,48.71c31.82,0,71.53,0,102.6,0,60.44-.27,122.37-30.37,204.54-27.16,18.83.58,39.93,2.76,57.38,5.6,63.62,10.66,119.92,36.12,182.57,41.87,20.32,2.62,58.91,3.1,88.67-3.58,19.76-3.48,34.23-12.05,52.54-12.3,21.97-.5,46.11,5.62,72.37,11.98,23.43,4.62,34.89,10.93,57.63,20,7.12,2.84,15.75,5.43,22.67,8.26,6.35,3.31,14.02,7.74,20.89,3.24,1.82-1.09,3.43-2.6,3.39-4.87,1.07-7.2,1.05-18.27-1.32-25.41-.08-.69.78-1.23,1.24-2.14.67-1.56-.33-2.97-.42-4.76-.3-3.27,1.12-7.54-.09-10.28-1.11-1.85.02-2.71.88-4.06,1.06-6.2.97-13.38-1-19.37.86-1.84,2.22-3.56,2.91-5.64.65-2.38,3.36-3.42,4.71-5.29.66-2.61.47-5.05,2.24-7.39.68-1.2-.43-3.1.51-4.01,1.07.33.17,2.16.48,3.08.47,2.18,2.54,3.65,1.93,5.91-.78,4.06,5.41,4.97,5.63,8.94.55,2.46,2.1,4.13,2.94,6.41.32.87.73,2.8-.48,2.64-.8-.31-1.18-1.69-1.84-2.12-.37.16,1.07,2.79,1.31,3.65.64,2-.78,3.88-.83,5.89-.16,2.91,1.31,5.84,1.31,8.71,2.4,5.39,7.29-1.23,10.12-2.86,2.52-2.29,6.76-2.25,9.16-4.54.59-1.04.32-3.01.87-4.15,3.64-3.36,2.31,4.89,4.98,5.37,4.42,1.33,8.79,3.13,11.89,6.62,1.92,2.05,6.35,1.59,6.17-1.73,1.09-5.52-1.36-12.02,1.13-17.28-.63-.05-.8,1.1-1.17,1.55-.34.77-1.06,1-1.16-.19-.18-3.14,2.48-5.2,3.06-8.29.47-3.34,4.49-4.31,5.75-7,.18-1.32-.26-2.9.29-4.12.72-1.47,1.93-2.94,1.56-4.68-.13-1.17-.33-2.31.62-2.02.77.88.06,2.39.44,3.48.32,1.58,1.7,2.91,1.75,4.29.1,1.55-.39,3.4,1.02,4.51,3.89,2.09,5.19,6.18,7.11,9.77-.22,2.5-1.41,3.8-1.58,6.77-.63,5.14-.42,10.94,2.11,15.3-1.85,3.26-1.2,5.39-1.01,9.68-.03,2.25-.7,4.77-.06,6.89,2.56,2.15-.76,4.37-.11,6.88-.37,5.74-.29,16.05-.09,21.18.16,2.06.29,2.77,1.79,2.56,3.15-.6,6.73-2.63,9.92-3.55.7-.2,1.35-.52,1.97-.89,46.53-27.69,117.79-44.95,168.5-50.12,46.16-3.17,133.88,9.48,166.87,16.45,24.54,4.21,43.85,13.09,64.72,15.09,48.88,7.8,131.75-16.44,155.2-28.46,82.24-43.14,71.67,17.9,172.2,24.39,26.81,3.79,65.11,4.69,95.23,1.42,58.5-3.76,97.34-25.75,146.91-23.2,11.56,1.37,24.54,4.84,36.67,7.23,47.87,8.28,69.35,20.58,112.06,33.74,5.76,1.43,8.96,3.26,14.06,3.46,5.09.6,12.32-1.02,17.23,1.67,17.85,10.15,29.25-2.3,23.2-20.33-.44-6.13-7.44-4.53-10.3-1.29-1.23.8-2.82.31-4.24.82-2.07,1.16-4.55.52-5.94-1.4-1.05-1.18-3.16-.78-4.27-1.59-.81-.58-1.14-1.73-2.13-2.04-5.06-.31-9.86,4.27-14.83,2.37-1.36-.74-1.38-2.24-2.42-2.78-1.86-.77-5.29-1.33-4.92-3.68,1.37-2-1.09-3.02-1.56-4.61-.33-2.08,1.52-3.95,2.62-5.61,1.02-1.65,1.29-3.75,3.3-4.22.99-.26,2.18-.38,2.93-1.12,1.08-2.8,2.51-5.59,5.41-7.03.93-.75,3.79-.93,2.93-2.67-2.5-2.87-.6-8.2,3.56-8.55,1.24-.31,2.61-.39,3.81-.16,1.32.39,3.22.09,3.26-1.59.03-2.59-2.64-4.83.59-6.84,3.28-4.56,8.85-7.09,14.05-8.92,3.72-.62,7.11-1.2,10.62.24,2.92.11,5.42-1.15,8.12-2.01,2.65-.68,5.08,1.12,7.24,2.31.8.19,1.66-.01,2.49-.12,2.48-.49,4.38,1.35,6.45,2.21,1.4.36,2.81-1.22,4.53-1.5,2.02-.48,3.9.28,5.57,1.3,4.34.85,8.44,1.7,12.85,2.65,3.05,1.13,4.7,3.85,6.69,6.02,2.32.84,5.35,1.46,6.94,3.77.81,2.34-.6,5.06-.9,7.29.5,1.91,3.27.85,4.52,1.48,2.44,1.06,3.7,3.96,3.2,6.42.98,2.19,1.49,4.5,3.46,6.03.88,2.04-.13,4.81-1.45,6.59-1.71,1.93.3,4.5-.41,6.71-.44,1.72-2.82,2.5-3.7,3.49-.77,3.55-4.86,3.32-7.57,4.66-2.25.14-4.12-1.64-6.46-1.2-2.88-.24-4.16,2.66-6.54,3.55-2.14.97-5-.9-6.77-.28-1.17.59-1.99,1.8-3.45,1.76-3.36-.03-4.99-3.5-8.09-4.56-1.62-.51-3.09-.25-3.44,1.23-.1,4.03,2.1,9.59,3.45,13.58,2.44,4.37,1.76,10.62,7.26,11.87,16.45.35,22.99-3.34,38.93-5.9,5.16-1.19,11-1.46,16.01-3.1,2.46-1.56,7.57-4.69,9.9-6.29,14.42-5.63,39.35-10.49,64.08-18.25,51.2-14.61,104.81-33.54,157.36-12.7,31.32,19.72,58.52-.63,91.46-15.47,27.98-17.19,42.5-10.88,71.22,4.83,16.77,8.83,40.19,21.1,55.1,28.16,12.51,2.99,20.95.41,32.78-2.58,10.38-2.71,26.9-4.53,39.61-4.43,28.38-.61,53.35,4.37,79.25,11.93,34.8,7.58,67.41,3.95,101.04-.86,37.65-10.28,52.73,6.92,86.3,8.42,28.25.11,47.7-6,70.75-13.79,19.9-8.97,35.18-12.62,60.54-12.54,34.78-.35,58.13,28.32,94.09,34.75,1.97.08,6.64,1.3,7.46-1.15-1.97-6.01-5.16-11.38-7.31-17.26-1.13-3.82,25.19-15.46,29.57-19.36,22.16-13.47,43.79-27.45,65.44-41.69,2-1.29,12.88-9.05,7.78-3.14-22.56,19.08-44.52,39-66.57,58.64-7.22,7.96-15.54,8.25-7.76,19.84.97,1.91,3.79,2.11,5.55,1.28.45-.78-4.62-.2-4.59-1.66.35-.86,3.74-.96,4.86-1.63,1.46-.75,4.26.12,3.99-1.92-.4-1.61.98-2.26,1.91-3.6,1.59-2.15,2.27-.97,2.24,1.13.14,1.47,2.99.62,4.34.39,1.94-.28,4.52-.19,5.24-1.63.62-1.27,1.15-7.27,3.28-4.42.33,1.1.09,2.6,1.12,3.41.75.56,1.41-.93,2.42-1.95.99-1,1.98-1.25,1.59-2.15.1-.19-.53-.76-.31-.83,1.36,1.49,3.61,2.32,4.79,3.96-.56,5.31,1.41,2.58,4.18.89,10.51-2.75.34-3.82,5.05-6.43,8.31-6.67-5.06.71-6.69.37,3.47-1.48,7.36-3.97,11.06-4.08.75.31.39,1.53.31,2.29-.08,4.91,2.27,1.02,4.06-.37.88-1.1,2.86.15,3.45.17-.44-1.92-2.74-3.66-3.69-5.4-1.31-2.87,5.14,6.21,6.29,7.12,5.81,4.6,1.54-6.49,5.4-6.85.65.28.81,1.39,1.17,1.97,1.36,1.68,2.41-1.76,3.75-2.05,1.51-.91,3.7.79,4.44-.7-1.03-1.04-3.92-.23-4.89-1.85-1.67-2.25,2.05,1.29,3.51.34,1.57-.38.97-1.92,1.79-3.01.99-.92,2.29-5.34,3.47-2.54.55.74-.14,5.48,1.32,3.25.22-1.37-.23-2.95.71-4.16,2.24-2.68.28-3.41-2.2-4.79-.85-.65-.03-.4.49-.19,4.77,2.6,9.87,4.82,14.27,7.93-2.22-.39-4.46-2.35-6.52-3.2-4.46-3.73-7.57,4.21-3.79.93,1.38-1.1,6.36,1.53,4.88,3.42-.74.45-1.8.21-1.94.74.85,6.65,10.73.35,14.45,1.44-.04.07-.23.18-.56.29-4.34,1.26-9.37.94-13.38,2.96-1.1.23-.39-2.84-1.7-3.22-.57-.26-1.39.03-2.18.4-6.34,3.27-3.05-5.55-6.12-3.06-2.85,4.17,5.21,4.7,2.14,8.43-.93,1.31-3.87.81-4.53,1.99-.76,1.46,1.15.98,1.82.48,2.19-.85,5.74-1.19,7.61-2.53,2.24-1.99,6.84-2.64,7.94.83.76,2.79-1.02-.24-1.6-.93-.75-1-3.47-.75-3.91-.19.32.57,1.67.71,1.31,1.73-.2.99-2.39,2.17-3.1,1.33,6.66-3.67-7.09-.45-8.23.8-1.13,1.48.09,2.66-2.3,2.54-1.31-.12.26-1.09-.54-2.06-1.18-2.72-4.22-.16-6.2-1.28-1.16-1.02-.53-3.32-1.67-4.64-.89.46-1.24,4.42-.24,5.61.68,1.07,2.31,1.23,2.51,2.62-.01,2.12-1.29,4.15,1.85,2.17,2.31-1.35,8.22-3.58,9,.53.11.63-.26,1.03-.71.64-2.12-6.08-3.63,2.33-6.82,1.61-.27-.11-.18-.31.18-.55,4.42-2.78.54-3.08-2.17-1.07-2.23,1-8.72,2.45-3.81,4.69,2.02,1.45.85,3.39-.22.97-1.19-.71-4.19-1.4-2.91-3.39,1.49-1.91-3.1.99-3.93.78-2.23.78-3.81,3.01-5.9,3.93-1.75,1.77-15.25,3.01-13.73,4.33,3.07,1.84,16.28,9.58,19.78,11.64,2.32,1.3-.28-5.22,0-6.29-.41-8.04-3.83-5.07-8.79-6.99.25-1.15,2.17-1.43,3.04-2.11,2.09-.93,4.43-4.5,7.06-3.63,1.45,1.07-3.29,6.83-1.11,2.1,1.48-3.89-5.14,2.32-6.16,2.47-.74.37-1.79.98-.1,1.11,1.66.45,4.72-.14,5.95,1,1.56,4.28-.36,11.12,3.62,13.72,19.76,2.25,43.11,1.91,61.71-4.42,40.75-21.24,84.32-52.03,156.59-58.5,44.29-3.35,101.33,5.75,147.92,11.39,52.95,6.41,93.9,20.35,140.04,21.92,45.21,2.98,182.34-18.57,255.74-29.47,79.9-13.01,107.18,1.24,198.46,21.62,43.25,9.23,85.39,17.61,154.69,25.98,2.1.25,4.2.51,6.16.65,3.7.28,16.03,1.05,21.15,1.44.52.05.74.13,1.16.36,1.71,1.07,10.44,5.93,16.23,7.23,1.38.45,1.97.81,3.02,1,1.15.29,3.33.1,3.9-1.08.9-4.27.83-8.76,1.32-13.18.89-5.19-.05-11.35,1.99-16.36,1.99-2.59,6.25-2.07,7.14-5.39-.69-9.31-.24-18.6,2.04-27.68.49-2.15-1.93-2.3-3.12-3.42-2.03-3.21,1.57-12.41,5.48-13.65,4.03-1.43-.37-7.12,1.56-9.6.85-3.13,5.74-3.18,7.37-.57,1.42,2.12.08,4.53-.8,6.49-.68,2.15,1.99,2.82,3.44,3.46,2.42,1.22,3.09,3.5,3.57,6.29.33,2.61,1.33,5.27,1.07,7.87-.42,3.11-4.14,5.02-3.55,8.39-.59,3.56-.08,7.25-.46,10.82-.4,1.43-2.1,1.97-2.05,3.79-2.48,18.37,3.08,8.1,6.58,15.62,1.05,8.99,1.5,17.36,2.43,26.14-.01,1.97,2.25,2.25,3.76,2.28,2.01.2,1.62.03,2.89-.45,1.94-.83,5.67-2.43,10.29-4.42,13.8-6.76,31.83-12.55,41.99-19.61,30.55-20.58,50.48-39.32,95.59-52.34,50.21-13,128.74-2.19,183.04,3.39,33.76,4.05,64.44,11.77,90.58,8.1,36.89-3.97,61.62-15.05,99.27-10.53,68.74,10.69,158.3,53.65,232.48,46.23,19.55-1.78,29.65-6.63,49.17-10.73,13.37-3.13,36.78-5.33,52.95-5.91,30.16-2.09,84.33-1.01,128.07,10.72,19.35,4.89,33.13,10.73,53.43,14.9,30.53,6.5,65.99,6.78,87.73,4.58,7.77-.94,15.98-.2,23.29,2.82,7.62,2.95,13.39,8.97,21.88,9.43,11.03-.35,20.75,3.91,31.64,4.13,9.7.38,30.14.4,43,.19,4.43-.57,7.86,1.01,10.58-1.34,1.98-3.6-.28-8.19,1.44-11.81.45-.73,1.45-.68,1.81.06.55,1.07-.09,2.34.51,3.42.86,2.02,4.24,5.54,6.46,6.76.14-2.35-.82-6.38-1.19-9.1-.52-4.78-1.15-8.7-5.77-10.45-.71-.51-3.5-1.68-2.51-2.6,1.2-.18,3.27,1.09,4.09,1.31.11,0-.04-.09-.1-.15-1.28-.87-3.12-1.98-4.7-1.97-.56.04-.88.35-.73.87,1.31,2.58,6.28,3.26,7.3,5.57.19.4.26.85.14,1.26-1.35,2.69-4.96.7-7.18,2.03-2.49,1.43-.96,7.02-1.65,10.25-.14,2.23-2.02,3.66-4.17,3.42-8.06-.01-23.17.55-32.89.54-5.7-.66-14.91,1.36-18.36-2.13-.27-3.15-.87-7.68.54-10.44.76-1.09,2.06-1.39,3.43-1.52,5.86-.5,14.46-.01,21.4-.13,7.3-.75,14.31.25,21.6-1.35,2.5-.94,2.65-4.86.43-6.14-14.08-1.94-28.6.94-42.69,0-3.81-1.23.73-2.85,2.45-2.42,12.65-.68,26.58-.17,39.02-1.57,2.1-.53,3.3-3.4,1.4-4.82-2.38-1.44-5.47-.72-8.14-.69-8.06.12-16.89,1.5-25.1.68-1.22-.68.94-1.4,1.73-1.5,10.16-1.93,21.15-.5,30.95-3.38,1.85-.95,2.28-3.8.36-4.88-1.42-.84-3.26-.65-4.87-.53-9.34.13-19.47,3.3-28.6,1.84,1.63-2.21,6.28-1.71,8.92-2.32,7.96-1.37,16.32-1.12,23.99-3.73,1.76-.85,2.24-3.29.42-4.32-1.07-.65-2.55-.65-3.81-.54-8.27.99-16.64,2.42-24.99,3.45-1.05.12-2.24.27-3.27.18-.79-.11-1.5-.23-1.1-.89,8.37-3.09,18.34-2.8,27.04-4.76,1.95-.36,4.06-.47,5.81-1.44,1.77-.88,2.35-3.57.4-4.52-9.79-.95-19.8,2.96-29.67,3.76-1.01.11-2.3.27-3.15-.13-.61-.68,1.15-1.33,1.87-1.52,9.13-1.95,18.59-2.98,27.66-5.07,1.77-.37,4.21-1.15,4.69-3.04.31-2.59-3.17-2.89-5.1-2.38-8.71,1.59-17.4,3.51-26.07,5.06-.63.07-3.36.47-2.67-.65,10.39-4.36,22.84-3.48,33.02-8.36,1.48-1.11,1.29-2.97-.52-3.47-1.03-.31-2.27-.18-3.36-.01-8.3,1.48-16.6,3.75-24.91,5.42-.7.34-5.77.66-2.96-.92,9.23-2.71,19.01-4.41,28.4-7.04,1.65-.42,4.29-1.37,4.2-3.31-.73-1.92-3.42-1.49-5.14-1.16-9.02,1.66-17.83,4.75-26.87,6.1-.45-.01-1.07-.05-1.26-.4-.04-1.15,2.54-1.69,3.52-2.02,7.21-1.94,14.58-3.4,21.6-5.28,2.73-.83,6.17-.96,8.15-3.22,1.23-1.66-.23-3.73-2.14-3.95-8.73-.11-16.99,4.61-25.6,5.09-1.44-.15-1.49-1.22-.34-2.08,6.04-3,12.83-4.47,19.14-6.77,2.7-.73,5.74-2.31,8.51-1.53,2.91,1.36,4.09,5.35,5.53,8.05,2.9,7.22,8.23,14.06,8.41,21.9-1.61,4.3-3.88-6.07-6.12-4.86-.55,1.1-.06,2.66.3,3.8,1.75,3.59,3.33,7.76,3.87,11.56.67,4.76,5.8,41.24,6.55,46.57.26,5.78,7.84,8.49,12.03,4.72,6.32-4.25,18.5-11.86,26.02-16.94,1.06-.7,2.39-1.56,3.53-2.32,13.09-8.33,14.05-8.94,22.23-17.9,8.5-10.68,10.86-21.51,18.01-23.37,4.24-1.25,7.4.19,11.15,3.02,6.94,5.25,18.78,10.26,23.54,11.72,4.54,1.39,9.23,1.6,18.62,2.03,2.94.13,2.31.02,19.74,0h43.16" fill="none" id="pulse-path-shape" stroke="#cc9640" stroke-miterlimit="10"/></svg>