<?xml version="1.0" encoding="UTF-8"?>
<svg id="a" xmlns="http://www.w3.org/2000/svg" version="1.1" xmlns:xlink="http://www.w3.org/1999/xlink" viewBox="0 0 6000 99.22">
  <!-- Generator: Adobe Illustrator 29.5.0, SVG Export Plug-In . SVG Version: 2.1.0 Build 137)  -->
  <defs>
    <style>
      .st0 {
        fill: none;
        filter: url(#drop-shadow-1);
        stroke: #f39c12;
        stroke-miterlimit: 10;
        stroke-width: .75px;
      }
    </style>
    <filter id="drop-shadow-1" x="-.9" y="-.68" width="6003" height="102" filterUnits="userSpaceOnUse">
      <feOffset dx="1" dy="1"/>
      <feGaussianBlur result="blur" stdDeviation=".3"/>
      <feFlood flood-color="#211300" flood-opacity=".75"/>
      <feComposite in2="blur" operator="in"/>
      <feComposite in="SourceGraphic"/>
    </filter>
  </defs>
  <path id="pulse-path-shape" class="st0" d="M0,48.71c23.44-1.04,100.87,2.75,137.05-2.92,41.49-6.48,82.83-19.23,125.68-22.98,31.82-3.27,68.69-.95,100.15,4.03,95.6,17.28,174.91,60.06,274.83,38.26,17.26-3.31,32.99-11.69,50.7-11.94,27.65-.18,63.62,9.39,93.43,17.52,16.84,6.1,39.58,16.1,58.24,22.47,3.82,1.7,7.59,4.02,11.71,4.95,6.18,1.74,13.84-1.6,13.73-8.59.67-6.31.54-14.56-.97-20.82-.47-1.64-.03-3.26.38-4.86.46-1.79-.16-3.74-.14-5.77.18-3.25.41-6.51-.19-9.72.51-3.52,1.87-7.38,1.57-11.2.59-4.49-2.12-8.91-.64-13.17,1.12-2.22,2.07-4.64,3.78-6.45,1.55-1.44,2.94-3.13,3.3-5.27.6-2.52,1.55-5.25,2.31-7.74.19-.16.52,1.11.61,1.48.4,1.92,1.42,3.69,1.68,5.57.07,2.83,2.02,4.87,3.96,6.7,1.73,1.93,2.17,4.61,3.4,6.81.48.98,1.06,2.12,1.16,3.2.05.58-.07.99-.34,1.11-.49.24-1.34-.4-1.35-.01-.02.13.03.37.12.7.75,1.94.68,4.5.15,6.58-.23,3.62.06,8.22,2.45,11.14,3.43,1.68,6.15-2.81,8.91-4.26,3.2-2.37,8.69-2.42,9.52-6.83.15-.4.32-.79.52-1.1.12-.17.09-.17.37-.46.2-.18.47-.34.73-.33,1.7.39,1.63,2.82,2.61,4.01,2.22,2.89,7.11,3.03,9.91,5.55,2.5,2.47,8.02,6.12,9.18.47.67-5.06-.5-10.66.55-15.7-.01-.44-.69.16-1.12-.12-.45-.39-.21-1.72.04-2.39,1.85-3.85,2.82-8.06,6.38-10.68,1.28-1.19,1.7-2.9,1.94-4.57.38-2.17,1.44-4.19,1.74-6.4.15-.6.29-.92.44-.83,1.33,3.08,1.92,6.51,2.76,9.68,2.02,3.26,5.43,5.59,6.67,9.42,1.4,2.64.03,5.11-.42,8.03-.48,3.08-.55,6.26-.13,9.34.19,2.38,1.5,4.73,1.5,6.91-.38,2.82-.81,5.62-.52,8.49.11,2.37-.36,4.63.06,6.71.97,2.47.44,4.93-.05,7.42-.58,6.13-.27,14.05-.22,19.87.02,1.9.38,4.83,2.96,4.16,3.48-.94,7.16-2.58,10.37-3.92,50.41-28.91,121.01-46.74,176.31-50.72,79.89-.02,149.45,13.02,213.94,30.45,12.43,2.2,23.66,3.37,37.09,2.94,52.31-2.25,106.56-18.83,132.61-32.12,14.78-7.28,27.37-11.71,37.51-12.75,32.49-3.48,51.73,21.75,83.07,30.58,24.51,8.08,51.71,9.6,78.64,11.63,22.62,1.19,45.47.53,67-1.65,68.83-5.75,115.71-36.11,178-16.3,18.47,3.26,37.87,7.85,54.58,13.58,22.04,6.91,49.33,19.5,74.97,24.26,4.26.3,9.45-.48,13.81.73,5.48,2.23,12.49,6,18.5,3.87,7.24-2.22,10.61-10.56,7.85-21.2-.98-8.04-6.34-6.77-11.73-3.41-1.72.63-3.64,1.03-5.48,1.08-3.59-.55-6.74-3.29-10.1-4.73-4.35-1.56-9.44,3.34-13.98,1.78-2.4-1.23-4.37-3.22-6.82-4.41-1.44-1.12-1.26-3.06-1.97-4.74-.62-1.43-1.12-3.04-.36-4.53,1.35-2.36,2.64-5.35,4.77-6.82,1.04-.65,2.25-1.12,3.09-2.04,1.79-2.34,2.98-5.21,5.82-6.59.64-.4,1.41-.84,1.83-1.43.83-1.06.21-2.49.08-3.72-.3-2.09.79-4.34,2.74-5.34,2.34-1.57,5.59-.1,7.76-1.71,1.32-1.45-.04-3.64.34-5.33,1.91-4.98,7.27-7.83,11.94-9.94,4.86-2.35,10.03-1.93,15.12-1.27,3.24.01,6.39-2.33,9.61-1.55,1.5.31,2.84,1.21,4.3,1.63,1.83.56,3.94.19,5.83.93,1.06.37,2.09.97,3.19,1.16,2.8.21,6.31-1.98,9.26-.31,5.73,2.42,13.7,1.31,18.12,6.45,2.2,3.47,7.09,3.38,9.06,6.91,1.29,2.25-1.09,5.42.35,7.23,1.19,1.19,3.17,1.02,4.49,2.06,2.51,1.72,2.12,5.04,3.19,7.58.85,2.29,2.86,4.09,2.64,6.49-.1,2.01-1.49,3.7-1.86,5.65-.3,1.38.01,2.83-.2,4.22-.24,2.06-2.2,3.38-3.5,4.9-1.77,2.34-4.63,3.57-7.47,3.93-2.2.32-4.36-.91-6.63-.7-2.6.09-4.32,2.36-6.65,3.16-1.79.64-3.73,0-5.57.13-1.77.13-3.43,1.47-5.29,1.23-2.74-.34-4.53-3-7.09-3.81-2.61-1.08-4.11,1.53-3.38,3.82.95,5.38,3.22,10.28,4.9,15.45.98,3.5,2.82,7.02,6.98,7.02,10.68.34,17.78-1.76,26.51-3.67,8.31-2.06,17.4-2.89,25.76-5,4.13-1.52,7.82-4.85,11.61-6.7,5.75-2.42,12.48-4.11,20.28-6.28,68.6-15.86,145.04-55.16,213.83-18.5,7.18,2.19,14.22,2.49,21.23,1.51,18.23-2.61,37.83-14.24,57.51-23.49,11.89-7.02,22.95-10.83,32.76-9.78,10.87.66,24.59,7.51,38.35,15.16,16.21,8.6,37.48,19.7,52.35,26.89,7.1,3.19,15.53,2.76,22.46,1.55,44.09-12.75,91.4-7.83,134.23,5.08,36.06,6.91,70.33,3.62,105.28-3.03,14-2.94,27.05-1.61,39.85,1.95,38.22,13.58,72.38,7.85,107.84-4.89,19.94-8.48,35.3-13.38,59.66-13.37,35.86-2.14,60.54,27.87,96.72,34.63,2.21.2,6.24,1.4,7.47-1.08.7-4.72-7.73-14.6-6.03-18.61,5.58-5.72,16.44-10.22,23.48-14.49,22.97-14.17,45.72-28.62,68.27-43.52,1.3-.78,14.66-10.37,10.31-4.97-21.46,18.74-42.89,37.61-64.03,56.7-3.47,3.44-7.87,6.89-11.28,10.13-3.68,3.46-1.05,10.37,2.69,12.91,1.22.69,3.51.54,2.8.03-.67-.44-2.32-.61-2.39-1.49,1.62-1.65,5.36-1.3,6.83-2.68,1.57-1.11,2.04-5.28,4.52-4.62,1.62,2.06,3.22,2.19,6.05,1.6,3.15-.2,4.37-2.01,5.2-4.61.59-1.4,1.6-1.7,2.29-.29,1.8,3.83,3.4-.02,5.29-1.56,1.73.05,3.8,2.52,4.25,4.35.57,2.18,2.22.74,3.77,0,1.62-.92,3.52-1.32,4.68-2.61.84-1.04-.56-2.12.14-3.34.54-1.03,1.62-1.78,2.37-2.62,2.12-2.66-5.48,1.54-7.29,1.6.02-.03.08-.07.17-.14,15.8-8.86,6.41,4.53,13.77-1.01,1.48-.87,3.16-.73,3.03-1.55-.23-1.37-2.52-3.27-2.5-4.24,1.1.21,6.44,10.33,8.87,6.86.89-1.33.07-5.98,2.59-5.75,1.47.94,2.91.71,4.28-.33,2.89-1.38,5.74-.82,1.87-2.43-1-.42-2.21-1.13-.31-.9,3.95.86,3.46-4.44,6.41-5.13,1.02.14.98,2.89,1.83,2.68.62-1.98,2.29-5.23,1.03-6.75-.4-.59-2.45-2.02-.54-1.17,3.92,2.1,8.56,3.93,11.9,6.69-2.07-.4-8.06-5.46-10.2-1.85-.24.64.43.46.94.41,1.63-.37,4.04.28,4.54,1.87.23.96-.59,1.78-.68,2.7-.17,1.06,1.14,2.14,2.63,2.24,3.02.45,7.26-1.8,9.92-1.25-2.48,1.13-5.78,1.03-8.47,1.72-1.55.29-3.13,1.03-4.1.58-2.67-2.25-2.37-2.25-5.92-1.79-1.86.26-2.55-2.77-3.43-3.03-.7-.04-.95.91-.94,1.5,0,2.29,3.62,3.89,1.97,6.17-.81,1.25-3.01,1.55-3.53,2.63.57.66,1.86.02,2.93-.21,3.12-.59,5.81-2.38,8.78-3.28,1.75-.42,3.87.28,4.56,2.03.09.39-.13.24-.36.14-.89-.52-2.1-1.46-3.24-1.28-1.08.19-.62,2.39-1.88,2.84-.23.07-.38.11-.39-.2.12-.61.27-1.01-.65-1-11.24.59-8.49,7.26-12.41,2.41-2.25-1.53-5.3.15-6.24-3.44-.24-.44-.49-1.32-.96-.84-1.35,2.52,1.1,4.95,2,7.02.4.82.29,2.5,1.55,2.34,2.42-.73,5.71-2.66,8.07-1.41.39.23,1.53,1.13.96,1.42-.58-.16-1.23-.75-1.9-.61-.69-.22-3.39,3.29-3.88,2.37.08-.46.66-1.06.51-1.56-.41-.8-4.07.9-5.4,1.48-1.49.68-4.16,1.66-2.41,3.62.34.52,1.82,2.16.32,1.5-.71-.33-1.07-.66-1.63-1.15-1.08-.97-1.17-2.26-1.99-2.43-3.06.08-5.71,2.42-8.08,4.02-1.09,2.13-16.93,3.54-14,5.42,4.51,2.77,13.32,8.01,18.3,10.76,2.22.75,1.15-2.53.91-4.61-.33-1.86-.39-3.85-1.4-5.48-.97-2.38-5.22-1.18-6.43-3.12.13-.94,1.43-1.42,2.15-1.95,1.4-.98,7.52-5.78,6.14-.91-1,1.69-.3-.81-1.07-1.01-.7-.24-2.83,1.31-4.29,2.29-.81.51-2.09,1.63-.41,1.92,10.18-.32,2.04,13.04,10.18,14.85,19.88,2.15,42.63,1.91,61.12-5.07,12.86-6.66,25.61-14.19,39.68-21.62,30.6-16.51,70.97-33.32,118.8-36.65,80.19-2.9,176.63,17.2,254.1,30.8,21.75,2.89,38.05,3.83,61.9,2.3,66.27-4.42,162.59-19.9,222.05-28.64,47.2-8.18,82.02-6.45,118.33,1.76,87.66,21.29,163.52,38.4,267.35,48.73,3.94,2.23,13.31,7.11,19.3,7.34,1.95-.16,2.87-2.07,3.01-3.83.48-3.97.6-8.06,1.08-12.03.94-5-.77-11.19,2.85-15.31,1.65-1.56,4.43-2.05,5.37-4.03.53-1.02.59-2.34.55-3.52-.35-7.46.05-14.89,1.59-22.21.2-1.1.48-2.29.16-3.36-.42-1.62-2.33-2.44-2.83-3.93-.84-3.51.83-7.37,2.91-10.19,1.35-1.82,3.54-2.48,4.1-4.43.33-1.14.12-2.36,0-3.53-1.69-5.33,5.32-8.89,7.67-3.58.64,5.85-3,6.03,3.38,9.77,3.24,2.96,3.45,8.89,3.59,13.15-.78,3.69-3.97,6.51-3.55,10.59-.23,2.68.09,5.41-.37,8.03-1.71,3.62-2.72,8.04-2.48,12.15.07,1.66.42,3.18,1.06,3.82,1.38,1.3,3,.74,4.54,2.42.48.51.89,1.2,1.19,1.99,1.68,7.91,1.56,16,2.54,23.93-.06,2.25,1.56,4.38,3.91,4.37,2.81.13,4.66-1.19,7.37-2.25,5.28-2.32,10.78-4.84,16-7.11,12.68-5.57,24.87-9.73,34.33-16.76,92.62-75.82,165.53-58.51,279.47-46.95,36.16,4.66,65.27,12.53,98.98,6.16,8.46-1.29,16.36-2.86,24.06-4.37,99.69-25.72,201.3,57.64,306.23,40.34,13.55-2.21,23.75-6.28,38.66-9.36,13.67-2.99,31.22-4.83,47.5-5.71,36.53-2.35,86.53-1.67,133.18,10.32,15.16,3.81,29.12,9,44.25,12.84,30.49,8.14,71.63,9.39,95.7,7.01,8.19-1.03,16.97-.64,24.73,2.53,6.1,2.31,11.1,6.58,17.14,8.53,2.45.84,5.17,1.01,7.77,1.07,9.14.28,17.52,3.33,26.55,3.97,14.43.68,29.08.47,43.21.36,2.59-.1,5.49-.12,8-.09,1.96-.02,3.8-.38,4.79-2.03,1.87-3.06-.28-7.44,1.69-10.44,1.21-1.18,1.85,1.23,2.09,2.16.69,2.43,2.94,4.87,5.23,6.4.9.39,1.08-.3,1.04-1.22-1.39-6.65-.41-14.88-7.53-17.91-.59-.48-.99-.74-1.01-1.24.03-.29.58-.31,1.2-.21.59.05,1.14.32,1.05.1-.73-.49-2.3-1.25-3.23-.9-.75.36-.12,1.2.31,1.61,1.57,1.5,4.54,2.42,5.25,4.13.79,1.9-1.58,2.89-3.21,2.9-9.7-.01.35,14.92-10.67,14.23-10.01.02-23.59.73-34.51.42-4.13-.03-9.04.45-12.4-.61-1.31-.39-2.25-1.11-2.65-2.36-.46-2.95-1.02-7.34.95-9.56,1.9-1.92,5.02-1.51,7.57-1.67,12.66-.4,25.61,1.01,37.97-1.51,1.02-.48,1.76-1.34,1.94-2.4.49-2.54-2.14-3.86-4.33-3.87-12.73-1.25-25.77,1.26-38.47.28-.6-.13-1.35-.3-1.65-.85-.14-.36.18-.76.82-1.03,12.69-1.78,26.46-.32,39.14-1.86,1.49-.15,3.3-.77,3.84-2.21.36-.92.04-1.96-.76-2.59-2.17-1.52-5-.95-7.5-.93-7.26.17-14.94,1.19-22.34.88-.57-.04-2.02-.15-2.23-.64-.18-.58,1.22-.96,1.78-1.11,9.79-2.06,20.52-.07,29.81-3.55,1.65-.87,2.08-3.21.46-4.33-1.86-1.24-4.26-.85-6.39-.78-8.12.37-16.59,2.73-24.62,1.95-1.02-.15-1.57-.61-.42-1.19,1.86-.84,4.19-.9,6.18-1.19,8.11-1.56,16.9-.85,24.59-4.05,1.59-.87,1.93-3.03.24-3.98-1.09-.66-2.58-.68-3.87-.58-8.41.88-16.9,2.56-25.37,3.39-.59.05-2.04.02-2.34-.4-.23-.57,1.13-1.05,1.74-1.22,7.47-2.11,15.9-2.2,23.47-3.74,2.76-.6,6.57-.61,7.66-3.62.37-1.98-1.99-2.7-3.61-2.62-8.8-.09-17.7,3.11-26.56,3.82-.75.13-3.59-.09-1.79-1.21,9.26-2.91,19.41-3.06,28.73-5.74,2.04-.41,5.05-3.04,2.34-4.7-1.1-.6-2.62-.53-3.89-.36-7.84,1.36-15.7,3.14-23.51,4.56-1.02.18-2.86.52-3.72.06-.49-.52,1.03-1.04,1.51-1.25,9.15-3.14,19.65-2.95,28.57-6.71,1.06-.46,2.37-1.49,2.16-2.65-.65-1.84-3.3-1.68-4.97-1.39-8.68,1.3-17.28,4.46-25.99,5.3-.56-.05-.9-.2-.91-.42,0-.08.04-.16.12-.25.31-.29.42-.3.76-.48,8.59-2.77,17.79-4.14,26.55-6.68,1.64-.46,4.38-1.4,4.26-3.36-.67-1.75-3.2-1.48-4.81-1.2-8.18,1.48-16.16,4.22-24.33,5.62-.59.11-2.04.2-2.35-.25-.16-.24.07-.59.6-.93.82-.53,2.06-.88,3.04-1.15,6.87-1.82,13.9-3.25,20.61-5.04,2.53-.73,5.6-1,7.38-3.11,1.18-1.49.11-3.4-1.65-3.72-7.99-.79-15.7,3.85-23.55,4.53-.66.06-1.99-.01-2.21-.66-.25-.89,1.27-1.74,2.08-2.12,7.29-2.85,14.81-5.31,22.37-7.29,4.97-.91,7.33,4.98,8.94,8.75,2.77,6.54,7.48,12.85,7.85,19.97-.88,5.71-4.78-6.53-5.78-1.83,6.98,18.33,6.84,39.54,10.42,58.65.04,3.34,2.24,6.98,5.75,7.68,2.41.67,5-.26,6.95-1.64,7.59-4.91,17.77-11.55,25.91-16.9,2.81-1.85,5.46-3.57,8.32-5.4,7.22-4.68,9.56-6.55,14.53-11.86,1.57-1.67,3.23-3.62,4.59-5.55,4.4-6.19,7.04-12.17,10.08-16.13,3.2-4.59,9.04-6.33,14.04-3.42,8.1,5.84,18.63,11.29,27.77,13.97,3.44.9,7.31,1.22,13.35,1.53,1.73.09,3.63.18,5.22.23,1.2.03,2.35.02,5.68,0,4.62-.03,9.1-.04,13.75-.04,4,0,25.48,0,36.13,0,3.27,0,5.07,0,6.19,0"/>
</svg>