<?xml version="1.0" encoding="UTF-8"?>
<svg id="Capa_1" data-name="Capa 1" xmlns="http://www.w3.org/2000/svg" viewBox="0 0 1093.45 988.21">
  <defs>
    <style>
      .cls-1 {
        fill: #fff;
      }

      .cls-2 {
        fill: #cc9640;
      }

      .cls-3 {
        fill: #5d655a;
        opacity: .31;
      }
    </style>
  </defs>
  <g>
    <path class="cls-1" d="M48.25,863.41H0v-22.88h123.55v22.88h-48.25v122.72h-27.04v-122.72Z"/>
    <path class="cls-1" d="M147.68,922.69v-82.16h27.04v81.12c0,29.95,13.52,42.85,37.02,42.85s36.81-12.9,36.81-42.85v-81.12h26.62v82.16c0,42.43-23.92,65.52-63.65,65.52s-63.85-23.09-63.85-65.52Z"/>
    <path class="cls-1" d="M450.11,840.53v145.59h-22.26l-80.29-98.59v98.59h-26.83v-145.59h22.25l80.29,98.59v-98.59h26.83Z"/>
    <path class="cls-1" d="M496.91,840.53h63.65c47.21,0,79.45,29.12,79.45,72.8s-32.24,72.8-79.45,72.8h-63.65v-145.59ZM559.31,963.25c32.45,0,53.46-19.76,53.46-49.92s-21.01-49.92-53.46-49.92h-35.36v99.84h35.36Z"/>
    <path class="cls-1" d="M768.76,952.43h-72.8l-14.35,33.69h-27.87l65.52-145.59h26.62l65.72,145.59h-28.29l-14.56-33.69ZM759.82,931.22l-27.46-63.65-27.25,63.65h54.7Z"/>
    <path class="cls-1" d="M860.08,863.41h-48.25v-22.88h123.55v22.88h-48.26v122.72h-27.04v-122.72Z"/>
    <path class="cls-1" d="M1050.6,952.43h-72.8l-14.35,33.69h-27.87l65.52-145.59h26.62l65.73,145.59h-28.29l-14.56-33.69ZM1041.66,931.22l-27.46-63.65-27.25,63.65h54.7Z"/>
  </g>
  <g>
    <path class="cls-2" d="M648.28,457.38c-34.43,34.04-62.56,62.02-114.96,34.8-20.23-10.51-70.13-60.31-85.8-79.11-17.84-21.41-18.96-56.14-2.9-78.89,9.84-13.94,59.71-65.23,73.36-72.57,26.42-14.2,55.29-3.74,76.5,14.49,32.84,28.23,64.84,66.39,31.88,108.88-20.87,26.9-56.28,57.35-89.38,29.58-16.17-13.57-25.22-33.25-19.48-54.48,3.91-14.46,27.6-39.82,42.52-25.53,6.98,6.68,3.24,16.31-3.54,21.53-2.05,1.57-4.53,2.13-6.43,3.56-17.23,12.97.14,40.75,21.37,37.36,10.32-1.65,36.65-30.32,39.43-40.53,2.36-8.7.59-18.27-3.7-26.07-5.62-10.22-35.09-37.79-45.5-43.46-13.88-7.56-26.88-5.22-38.66,4.66-12.88,10.8-42.74,41.68-52.93,55.01-12.85,16.8-12.29,37.15,2,52.92,33,28.28,82.54,104.49,132.43,63.52,17.38-14.28,40.55-39.57,56.47-56.47,14.96-15.88,29.11-28.6,30.94-52.02,2.62-33.44-17.24-49.55-37.94-70.97-16.8-17.4-34.16-34.57-51.47-51.47-21.68-21.16-46.31-52.32-79.81-30.78-43.2,40.91-83.63,84.98-125.44,127.43l-2.21,4.78c1.73,23.85-2.16,50.56,0,74.05.22,2.43.24,3.26,1.59,5.4,2.68,4.25,17.76,18.87,22.41,23.56,12.05,12.15,25.37,23.38,37.54,35.43,20.24,20.03,42.2,45.48,63.43,63.51,6.54,5.56,11.93,8.89,20.61,10.38,5.08.87,9.73-2.2,11.72,4.27,1.17,3.79.93,17.28-1.25,20.4-5.31,7.6-33.19.55-39.56-5.58l-136.45-134.41c-5.08-5.49-7.43-12.58-8.01-19.98-2.04-25.98.08-54.1-.04-79.99-.05-9.73,5.49-15.84,11.67-22.39,25.96-27.52,53.3-54.23,79.75-81.16,30.49-31.04,56.47-72.11,106.76-57.58,22.03,6.37,32.6,20.87,48.24,35.72,26.02,24.71,55.59,51.85,79.51,78.41,21.85,24.27,28.49,44.95,25.95,77.97-2.8,36.36-45.73,71.22-70.6,95.81Z"/>
    <path class="cls-2" d="M828.81,433.57c-1.13-5.98-27.64-16.38-31.93-23.01.01-2.05,28.03-18.56,31.22-21.72,1.66-14.22.32-28.86.71-43.22-1.59-6.05-31.38-21.7-31.96-24.05-.33-1.33,2.08-3.13,3.07-3.89,7.53-5.77,18.78-10.68,25.85-16.13,1.07-.83,2.46-1.8,2.85-3.14l.18-115.71-3.04-3.95c-22.31-12.56-42.89-28.08-64.98-40.96-2.75-1.6-10.21-7.15-12.98-5.16-1.33.96-1.31,21.05-.96,24.09.67,5.74,7.62,9.65,12.1,12.88,13.6,9.78,29.31,17.99,42.66,28.3,1.81,3.55,1.84,37.78.22,39.25l-17.9-9.57-164.56-106.35c-1.08-1.98,2.28-4.4,3.63-5.45,3.58-2.78,18.88-13.53,22.21-14.79,1.33-.51,2.47-1.13,3.96-.6,8.82,2.73,62.24,41.92,65.76,40.33,1.49-.68,1.83-2.49,2.01-3.97.48-4.01.42-24.42-1.16-26.92-1.07-1.71-29.23-19.66-33.56-22.41-7.9-5.01-20.36-14.22-28.25-17.72-1.8-.8-3.41-1.81-5.52-1.53l-55.99,36.77-23.48-14.72c-.97-1.41,3.09-4.54,4.06-5.41l47.7-31.75c.66-2.56.65-5.78-1.82-7.26-14.7-8.87-29.36-17.92-43.87-27.1-6.63-4.2-20.28-15.33-26.34-17.64-6.09-2.32-9.08-.45-14.02,2.41-15,8.71-30.49,20.99-45.36,30.61-4.03,2.61-23.35,12.93-24.16,15.9-.48,1.75-.13,3.22,1.31,4.33,14.55,9.28,30.53,18.41,44.43,28.52,1.77,1.29,8.1,5.15,6.63,7.43-1.71,2.64-19.39,11.34-22.84,14.84l-53.71-36.3c-2.35-1.12-5.13-.78-7.29.6l-61.68,41.26c-.84.85-.85,1.9-1,3-.43,3.26-.34,24.46.57,26.52.26.59,1.36,1.71,1.97,1.75l65.22-41.55c4.38-.64,23.5,16.19,29.21,18.36,1.29.79,1.24,1.21.58,2.49-1.01,1.95-31.52,21.69-36.21,24.77-47,30.88-94.95,60.74-142.78,90.16-.87.15-2.27-.88-2.45-1.51v-36.98c13.95-12.34,31.16-20.91,46.29-31.67,2.19-1.56,6.18-3.87,6.66-6.33.58-2.95.58-21.97.01-24.97-.48-2.54-1.77-2.96-4.25-2.31l-71.67,45.31c-5.69,4.87-2.09,16.54-1.98,22.91.53,31.62-1.14,63.16-.81,94.76,1.28,7.17,10.37,8.86,15.67,12.31,2.23,1.45,16.94,10.92,17.12,11.95.19,1.12-.07,2.28-1.07,2.94-8.59,6.92-20.5,12.44-28.9,19.08-3.7,2.93-3.8,9.13-4.11,13.88-.29,4.45-.59,27.96.56,30.51,2.42,5.34,32.61,19.79,33.42,23.62.7,3.33-25.72,18.98-29.43,22.39-4.78,4.4-4.6,17.85-4.55,24.53.02,2.85,1.07,5.31,1.09,7.9.17,28.59-.39,57.2.17,85.79,1.96,6.19,8.12,7.27,12.7,10.29,20.73,13.66,41.76,27.04,62.58,40.44,1.13.13,2.31.04,3.01-.99,1.05-1.53,1.42-27.48-1.53-30.55-13.4-10.84-30.82-18.31-44.33-28.63-10.71-8.18-6.75-7.79-6.62-19.27.11-9.29-1.67-18.87.44-27.53l178.47,116.38c1.4,1.51,1.19,2.56.01,4.11-.89,1.16-21.76,16.35-23.72,17.27-4.48,2.1-5.39.76-9.25-1.42-19.59-11.09-37.86-25.12-57.09-36.86l-4.96-.54v29.48c0,.53,1.17,2.05,1.75,2.53,16.47,8.98,31.36,20.58,47.3,30.37,2.91,1.79,12.12,7.98,14.17,8.81,5.7,2.32,9.6-1.3,14.27-4.21,15.43-9.61,29.8-20.99,44.77-31.27.57-.42,1.09-.39,1.75-.27,2.39.45,20,12.46,22.25,14.69.7.69,2.06.85,1.67,2.32l-49.98,34.98c-1.37,1.24-1.26,3.19-.85,4.85,16.49,11.5,32.93,23.31,49.92,34.06,5.03,3.19,21.67,14.69,26.32,14.52,4.2-.16,19.78-10.62,24.49-13.52,18.24-11.23,35.9-23.55,54-35.03l-.87-2.93-51.58-36.39c-1.23-1.36.18-2.13,1-3.06,1.88-2.15,12.45-7.91,15.86-10.12,2.37-1.53,3.58-4.7,6.93-3.69l56.13,36.82c22-12.53,42.74-27.45,64.5-40.51,5.44-5.04,2.29-12.9,2.04-18.94-.16-3.74,2.38-9.54-1.51-13.5l-64.18,39.81c-1.19.37-2.32.21-3.51-.02-1.98-.38-19.66-12.22-22.65-14.39-1.49-1.08-6.3-4.14-6.02-5.77,14.28-11.51,30.06-21.45,45.39-31.64,40-26.61,80.51-53.13,121.14-78.75,1.94-1.23,15.5-9.91,16.3-9.18.19,2.19.9,4.24,1.05,6.46.42,6.25.95,30.86-.49,35.57-.57,1.86-2.22,3.16-3.63,4.36-9.31,7.97-26.43,16.45-37.21,23.75-3.02,2.05-11.12,6.77-12.71,9.28-2.7,4.28-2.38,17.7-2.01,23.05.27,3.98.33,8.34,5,5.91l75.04-47.9c2.08-1.84,3.16-4.18,3.01-6.98l-1.07-112.96ZM516.67,55.06c-2.99-2.3-5.33-3.38-1.61-6.27,2.69-2.09,27-17.13,28.66-17.38,2.37-.35,4.29,1.38,6.17,2.41,4.18,2.29,19.59,11.79,22.44,14.53,4.04,3.89-1.7,6.15-5.05,8.69-3.18,2.41-21.51,15.11-23.81,15.11-1.59,0-24-14.94-26.8-17.1ZM575.96,680.93c.32,1.4-.21,1.64-.97,2.51-1.77,2.02-22.82,15.89-25.75,17.22-4.09,1.86-7.16,1.62-11.16-.36-7.94-3.94-16.99-12.52-25.09-16.9-.39-1.64,4.72-4.88,6.08-5.9,3.26-2.45,22.42-16.17,24.56-16.35,4.54-.38,25.4,19.05,32.32,19.77ZM801.57,458.76c-1.6.59-8.19,5.04-14.66,9.29h0s-.04.02-.04.02c-1.57,1.03-3.12,2.04-4.6,2.98l-39.89,25.88s0,.06,0,.08c-42.15,29.48-85.67,56.95-128.57,85.32-22.8,15.07-45.2,31.19-68.33,45.53-8.42-3.8-16.57-9.41-23.56-15.35-54.43-37.72-117.92-70.62-170.57-110.28-1.44-1.08-2.89-2.12-4.09-3.47l-35.14-22.59c-8.15-4.81-22.52-14.17-23.92-15.73-2.81-3.11-2.87-7.51-.79-11.13l20.98-13.85,37.28-27.16-28.8-17.27c-2.07-.3-3.69-1.8-5.31-3.19l-8.18-4.9h0c-6.29-3.34-14.24-7.68-16.31-11.31-1.81-3.18-1.6-9.33,1.12-11.98l15.19-10.44,40.41-29.45-39.58-25.91c-.21-.14-.42-.28-.63-.41l-.2-.13h0c-6.23-4.09-12.61-8.45-14.17-9.78-3.11-2.65-5.04-8.35-2.08-11.9,1.21-1.45,11.85-7.82,14.47-9.52,1.37-.89,5.72-3.7,9.7-6.12l42.41-26.51,188.03-123.12c3.64-.73,11.09,4.94,14.57,7.03,24.88,14.96,48.71,32.21,73.12,47.82,34.72,22.2,70.68,43.03,104.78,66.13.37.25.98.66,1.7,1.16h0s50.27,32.12,50.27,32.12h0c8.16,5.1,16.47,10.89,17.16,12.52.97,2.28.82,5.69.07,8.03-.51,1.6-8.98,7.83-17.23,13.38h0s-.02.01-.02.01c-5.57,3.75-11.03,7.2-13.87,8.7l-26.4,16.56,31.27,22.78c7.53,4.61,21.74,13.93,23.63,16.03,3.17,3.51,2.79,10.9.79,15.13-1.99.78-8.67,5.25-15.4,9.69h0c-5.92,3.92-11.88,7.81-14.69,9.14l-29.11,18.11c0,.13,0,.27,0,.4l43.88,28.06,14.63,9.32c3.02,3.03,1.66,6.61.72,10.24Z"/>
    <polygon class="cls-3" points="350.2 501.41 321.1 481.97 321.1 249.82 350.2 231.61 350.2 501.41"/>
    <polygon class="cls-3" points="737.01 500.77 766.12 481.56 766.12 247.84 737.01 229.23 737.01 500.77"/>
  </g>
</svg>